<?xml version="1.0" standalone="no"?>
<svg xmlns:xlink="http://www.w3.org/1999/xlink" id="wave" style="transform:rotate(0deg); transition: 0.3s" viewBox="0 0 1440 490" version="1.1" xmlns="http://www.w3.org/2000/svg"><defs><linearGradient id="sw-gradient-0" x1="0" x2="0" y1="1" y2="0"><stop stop-color="rgba(255, 255, 255, 1)" offset="0%"/><stop stop-color="rgba(200.775, 200.775, 200.775, 1)" offset="100%"/></linearGradient></defs><path style="transform:translate(0, 0px); opacity:1" fill="url(#sw-gradient-0)" d="M0,294L120,310.3C240,327,480,359,720,334.8C960,310,1200,229,1440,196C1680,163,1920,180,2160,212.3C2400,245,2640,294,2880,334.8C3120,376,3360,408,3600,424.7C3840,441,4080,441,4320,424.7C4560,408,4800,376,5040,343C5280,310,5520,278,5760,294C6000,310,6240,376,6480,383.8C6720,392,6960,343,7200,343C7440,343,7680,392,7920,416.5C8160,441,8400,441,8640,424.7C8880,408,9120,376,9360,310.3C9600,245,9840,147,10080,138.8C10320,131,10560,212,10800,228.7C11040,245,11280,196,11520,147C11760,98,12000,49,12240,73.5C12480,98,12720,196,12960,269.5C13200,343,13440,392,13680,343C13920,294,14160,147,14400,98C14640,49,14880,98,15120,171.5C15360,245,15600,343,15840,318.5C16080,294,16320,147,16560,89.8C16800,33,17040,65,17160,81.7L17280,98L17280,490L17160,490C17040,490,16800,490,16560,490C16320,490,16080,490,15840,490C15600,490,15360,490,15120,490C14880,490,14640,490,14400,490C14160,490,13920,490,13680,490C13440,490,13200,490,12960,490C12720,490,12480,490,12240,490C12000,490,11760,490,11520,490C11280,490,11040,490,10800,490C10560,490,10320,490,10080,490C9840,490,9600,490,9360,490C9120,490,8880,490,8640,490C8400,490,8160,490,7920,490C7680,490,7440,490,7200,490C6960,490,6720,490,6480,490C6240,490,6000,490,5760,490C5520,490,5280,490,5040,490C4800,490,4560,490,4320,490C4080,490,3840,490,3600,490C3360,490,3120,490,2880,490C2640,490,2400,490,2160,490C1920,490,1680,490,1440,490C1200,490,960,490,720,490C480,490,240,490,120,490L0,490Z"/></svg>