<svg width="100%" height="100%" id="svg" viewBox="0 0 1440 690" xmlns="http://www.w3.org/2000/svg" class="transition duration-300 ease-in-out delay-150"><defs><linearGradient id="gradient" x1="0%" y1="50%" x2="100%" y2="50%"><stop offset="5%" stop-color="#F78DA7"/><stop offset="95%" stop-color="#8ED1FC"/></linearGradient></defs><path d="M 0,700 L 0,105 C 73.32307692307691,85.09871794871796 146.64615384615382,65.19743589743591 220,69 C 293.3538461538462,72.80256410256409 366.7384615384616,100.30897435897433 454,141 C 541.2615384615384,181.69102564102567 642.3999999999999,235.56666666666666 740,266 C 837.6000000000001,296.43333333333334 931.6615384615386,303.42435897435894 1001,336 C 1070.3384615384614,368.57564102564106 1114.9538461538461,426.73589743589747 1184,455 C 1253.0461538461539,483.26410256410253 1346.523076923077,481.6320512820513 1440,480 L 1440,700 L 0,700 Z" stroke="none" stroke-width="0" fill="url(#gradient)" fill-opacity="0.265" class="transition-all duration-300 ease-in-out delay-150 path-0"/><defs><linearGradient id="gradient" x1="0%" y1="50%" x2="100%" y2="50%"><stop offset="5%" stop-color="#F78DA7"/><stop offset="95%" stop-color="#8ED1FC"/></linearGradient></defs><path d="M 0,700 L 0,245 C 74.58717948717944,263.0294871794872 149.17435897435888,281.0589743589744 238,292 C 326.8256410256411,302.9410256410256 429.8897435897437,306.7935897435897 511,333 C 592.1102564102563,359.2064102564103 651.2666666666667,407.76666666666677 722,426 C 792.7333333333333,444.23333333333323 875.0435897435898,432.1397435897435 963,451 C 1050.9564102564102,469.8602564102565 1144.5589743589742,519.674358974359 1225,553 C 1305.4410256410258,586.325641025641 1372.7205128205128,603.1628205128204 1440,620 L 1440,700 L 0,700 Z" stroke="none" stroke-width="0" fill="url(#gradient)" fill-opacity="0.4" class="transition-all duration-300 ease-in-out delay-150 path-1"/><defs><linearGradient id="gradient" x1="0%" y1="50%" x2="100%" y2="50%"><stop offset="5%" stop-color="#F78DA7"/><stop offset="95%" stop-color="#8ED1FC"/></linearGradient></defs><path d="M 0,700 L 0,385 C 87.21538461538461,346.20384615384614 174.43076923076922,307.40769230769234 251,333 C 327.5692307692308,358.59230769230766 393.4923076923078,448.5730769230769 470,480 C 546.5076923076922,511.4269230769231 633.6,484.30000000000007 721,492 C 808.4,499.69999999999993 896.1076923076923,542.226923076923 976,586 C 1055.8923076923077,629.773076923077 1127.9692307692308,674.7923076923078 1204,704 C 1280.0307692307692,733.2076923076922 1360.0153846153846,746.6038461538461 1440,760 L 1440,700 L 0,700 Z" stroke="none" stroke-width="0" fill="url(#gradient)" fill-opacity="0.53" class="transition-all duration-300 ease-in-out delay-150 path-2"/><defs><linearGradient id="gradient" x1="0%" y1="50%" x2="100%" y2="50%"><stop offset="5%" stop-color="#F78DA7"/><stop offset="95%" stop-color="#8ED1FC"/></linearGradient></defs><path d="M 0,700 L 0,525 C 91.8025641025641,501.6628205128205 183.6051282051282,478.32564102564095 259,490 C 334.3948717948718,501.67435897435905 393.3820512820512,548.3602564102565 460,599 C 526.6179487179488,649.6397435897435 600.8666666666668,704.2333333333333 701,724 C 801.1333333333332,743.7666666666667 927.1512820512819,728.7064102564102 1001,733 C 1074.848717948718,737.2935897435898 1096.5282051282052,760.9410256410256 1161,792 C 1225.4717948717948,823.0589743589744 1332.7358974358974,861.5294871794872 1440,900 L 1440,700 L 0,700 Z" stroke="none" stroke-width="0" fill="url(#gradient)" fill-opacity="1" class="transition-all duration-300 ease-in-out delay-150 path-3"/></svg>