<svg width="100%" height="100%" id="svg" viewBox="0 0 1440 590" xmlns="http://www.w3.org/2000/svg" class="transition duration-300 ease-in-out delay-150"><defs><linearGradient id="gradient" x1="0%" y1="50%" x2="100%" y2="50%"><stop offset="5%" stop-color="#F78DA7"/><stop offset="95%" stop-color="#8ED1FC"/></linearGradient></defs><path d="M 0,600 L 0,150 C 100.00956937799043,112.64114832535886 200.01913875598086,75.28229665071771 295,77 C 389.98086124401914,78.71770334928229 479.93301435406704,119.51196172248802 567,155 C 654.066985645933,190.48803827751198 738.2488038277512,220.66985645933016 829,208 C 919.7511961722488,195.33014354066984 1017.0717703349283,139.80861244019138 1120,123 C 1222.9282296650717,106.19138755980862 1331.4641148325359,128.0956937799043 1440,150 L 1440,600 L 0,600 Z" stroke="none" stroke-width="0" fill="url(#gradient)" fill-opacity="0.53" class="transition-all duration-300 ease-in-out delay-150 path-0"/><defs><linearGradient id="gradient" x1="0%" y1="50%" x2="100%" y2="50%"><stop offset="5%" stop-color="#F78DA7"/><stop offset="95%" stop-color="#8ED1FC"/></linearGradient></defs><path d="M 0,600 L 0,350 C 115.67464114832538,382.42105263157896 231.34928229665076,414.8421052631579 334,398 C 436.65071770334924,381.1578947368421 526.2775119617224,315.05263157894734 607,294 C 687.7224880382776,272.94736842105266 759.5406698564594,296.94736842105266 839,301 C 918.4593301435406,305.05263157894734 1005.5598086124401,289.1578947368421 1107,294 C 1208.44019138756,298.8421052631579 1324.22009569378,324.42105263157896 1440,350 L 1440,600 L 0,600 Z" stroke="none" stroke-width="0" fill="url(#gradient)" fill-opacity="1" class="transition-all duration-300 ease-in-out delay-150 path-1"/></svg>